<svg width="435" height="172" viewBox="0 0 435 172" fill="none" xmlns="http://www.w3.org/2000/svg">
<g filter="url(#filter0_d_235_1637)">
<path d="M390.747 14.7412L416.152 40.1455V125.125L390.747 150.53H44.1465L18.7412 125.125V40.1465L44.1465 14.7412H390.747Z" fill="url(#paint0_linear_235_1637)" stroke="#FDC82F" stroke-width="1.48277"/>
<path d="M391.496 14L416.894 40.3045V71.3309L407.204 60.8337V44.2189L387.383 23.6897H369.253L360.37 14H391.496Z" fill="#FDC82F"/>
<path d="M43.3979 151.271L18.0002 124.967V93.9403L27.69 104.438V121.052L47.511 141.582H65.6414L74.5237 151.271H43.3979Z" fill="#FDC82F"/>
<path d="M138.488 61.36H147.817V92.4859C147.817 95.3631 147.171 97.8625 145.877 99.9841C144.599 102.106 142.818 103.74 140.537 104.888C138.256 106.036 135.604 106.61 132.581 106.61C129.893 106.61 127.452 106.138 125.257 105.194C123.078 104.234 121.349 102.781 120.07 100.834C118.791 98.8724 118.159 96.4094 118.173 93.445H127.568C127.597 94.622 127.837 95.632 128.287 96.4748C128.752 97.303 129.384 97.9424 130.184 98.3929C130.997 98.8288 131.956 99.0468 133.061 99.0468C134.223 99.0468 135.204 98.7998 136.003 98.3057C136.817 97.7971 137.435 97.056 137.856 96.0824C138.277 95.1088 138.488 93.91 138.488 92.4859V61.36ZM196.642 83.68C196.642 88.548 195.719 92.6894 193.874 96.1042C192.043 99.5191 189.544 102.127 186.376 103.929C183.223 105.717 179.677 106.61 175.739 106.61C171.772 106.61 168.212 105.709 165.059 103.907C161.905 102.106 159.413 99.4973 157.582 96.0824C155.751 92.6676 154.836 88.5334 154.836 83.68C154.836 78.812 155.751 74.6706 157.582 71.2558C159.413 67.8409 161.905 65.2398 165.059 63.4525C168.212 61.6506 171.772 60.7497 175.739 60.7497C179.677 60.7497 183.223 61.6506 186.376 63.4525C189.544 65.2398 192.043 67.8409 193.874 71.2558C195.719 74.6706 196.642 78.812 196.642 83.68ZM187.073 83.68C187.073 80.5267 186.601 77.8675 185.657 75.7023C184.727 73.5372 183.411 71.8952 181.711 70.7763C180.011 69.6573 178.02 69.0979 175.739 69.0979C173.458 69.0979 171.467 69.6573 169.767 70.7763C168.066 71.8952 166.744 73.5372 165.8 75.7023C164.87 77.8675 164.405 80.5267 164.405 83.68C164.405 86.8333 164.87 89.4925 165.8 91.6577C166.744 93.8228 168.066 95.4648 169.767 96.5837C171.467 97.7027 173.458 98.2621 175.739 98.2621C178.02 98.2621 180.011 97.7027 181.711 96.5837C183.411 95.4648 184.727 93.8228 185.657 91.6577C186.601 89.4925 187.073 86.8333 187.073 83.68ZM233.234 75.7895C232.929 74.7287 232.5 73.7915 231.948 72.9777C231.395 72.1495 230.72 71.452 229.921 70.8852C229.136 70.304 228.235 69.8608 227.218 69.5556C226.215 69.2505 225.103 69.0979 223.883 69.0979C221.601 69.0979 219.596 69.6646 217.867 70.798C216.152 71.9315 214.815 73.5808 213.856 75.7459C212.897 77.8966 212.418 80.5267 212.418 83.6364C212.418 86.7461 212.89 89.3908 213.834 91.5705C214.779 93.7502 216.116 95.414 217.845 96.562C219.574 97.6954 221.616 98.2621 223.97 98.2621C226.106 98.2621 227.93 97.8843 229.441 97.1287C230.967 96.3585 232.129 95.2759 232.929 93.8809C233.742 92.4859 234.149 90.8366 234.149 88.933L236.067 89.2164H224.559V82.1106H243.238V87.7342C243.238 91.6577 242.41 95.0289 240.754 97.848C239.097 100.652 236.816 102.818 233.909 104.343C231.003 105.855 227.675 106.61 223.926 106.61C219.741 106.61 216.065 105.688 212.897 103.842C209.729 101.982 207.259 99.3447 205.486 95.9298C203.728 92.5005 202.849 88.4317 202.849 83.7236C202.849 80.1053 203.372 76.8794 204.418 74.0458C205.479 71.1977 206.961 68.7855 208.865 66.8092C210.768 64.833 212.984 63.329 215.513 62.2973C218.041 61.2655 220.78 60.7497 223.73 60.7497C226.259 60.7497 228.613 61.1202 230.792 61.8613C232.972 62.5879 234.905 63.6196 236.59 64.9565C238.291 66.2934 239.678 67.8845 240.754 69.73C241.829 71.5609 242.519 73.5808 242.824 75.7895H233.234ZM256.644 106H246.53L261.94 61.36H274.103L289.491 106H279.378L268.196 71.5609H267.847L256.644 106ZM256.011 88.4535H279.901V95.8209H256.011V88.4535ZM294.864 106V61.36H312.476C315.847 61.36 318.725 61.963 321.108 63.1691C323.505 64.3607 325.329 66.0536 326.579 68.2478C327.843 70.4275 328.475 72.9923 328.475 75.9421C328.475 78.9065 327.836 81.4567 326.557 83.5928C325.278 85.7144 323.426 87.3419 320.999 88.4753C318.587 89.6087 315.666 90.1755 312.236 90.1755H300.444V82.5902H310.711C312.513 82.5902 314.009 82.3431 315.201 81.8491C316.392 81.355 317.279 80.6139 317.86 79.6258C318.456 78.6377 318.754 77.4098 318.754 75.9421C318.754 74.4599 318.456 73.2102 317.86 72.193C317.279 71.1759 316.385 70.4057 315.179 69.8826C313.987 69.3449 312.483 69.0761 310.667 69.0761H304.302V106H294.864ZM318.972 85.6853L330.066 106H319.647L308.793 85.6853H318.972Z" fill="white"/>
</g>
<defs>
<filter id="filter0_d_235_1637" x="0.809999" y="-0.00454402" width="433.274" height="171.651" filterUnits="userSpaceOnUse" color-interpolation-filters="sRGB">
<feFlood flood-opacity="0" result="BackgroundImageFix"/>
<feColorMatrix in="SourceAlpha" type="matrix" values="0 0 0 0 0 0 0 0 0 0 0 0 0 0 0 0 0 0 127 0" result="hardAlpha"/>
<feOffset dy="3.18546"/>
<feGaussianBlur stdDeviation="8.595"/>
<feComposite in2="hardAlpha" operator="out"/>
<feColorMatrix type="matrix" values="0 0 0 0 0 0 0 0 0 0 0 0 0 0 0 0 0 0 0.77 0"/>
<feBlend mode="normal" in2="BackgroundImageFix" result="effect1_dropShadow_235_1637"/>
<feBlend mode="normal" in="SourceGraphic" in2="effect1_dropShadow_235_1637" result="shape"/>
</filter>
<linearGradient id="paint0_linear_235_1637" x1="217.447" y1="14" x2="217.447" y2="151.271" gradientUnits="userSpaceOnUse">
<stop stop-color="#FEDF00"/>
<stop offset="1" stop-color="#E17000"/>
</linearGradient>
</defs>
</svg>
